<svg width="400" height="400" viewBox="0 0 400 400" xmlns="http://www.w3.org/2000/svg"><defs><filter id="a"><feTurbulence type="fractalNoise" baseFrequency=".9" result="noise"/><feDisplacementMap in="SourceGraphic" in2="noise" scale="2"/></filter><filter id="b"><feTurbulence type="fractalNoise" baseFrequency=".6" result="noise"/><feDisplacementMap in="SourceGraphic" in2="noise" scale="1.2"/></filter></defs><path d="M90 150c-30-50 50-100 100-70 40-40 130 30 100 90 50 50-30 150-100 110-70 40-140-40-110-90Z" fill="#fff" stroke="#222" stroke-width="3.5" stroke-linecap="round" stroke-linejoin="round" filter="url(#a)"/><path d="M160 95c20 45 10 95-20 145" fill="none" stroke="#333" stroke-width="2.2" stroke-linecap="round" filter="url(#a)"/><path d="M210 100c40 50 20 110-10 160" fill="none" stroke="#333" stroke-width="2.2" stroke-linecap="round" filter="url(#a)"/><path d="M110 180c50-15 120-10 160 5" fill="none" stroke="#333" stroke-width="2" stroke-linecap="round" filter="url(#a)"/><path d="M140 140c10 20 5 50-5 75" fill="none" stroke="#444" stroke-width="1.5" stroke-linecap="round" filter="url(#b)"/><path d="M235 145c10 30 0 65-10 90" fill="none" stroke="#444" stroke-width="1.5" stroke-linecap="round" filter="url(#b)"/><g stroke="#555" stroke-linecap="round" filter="url(#b)"><path d="m120 210 25 15m-10 0 25 15m-10 0 25 15m35-35 30 10m-15 5 30 10m-15 5 30 10"/></g><path d="M170 155q12 9 0 18" fill="none" stroke="#555" stroke-width="1.3" stroke-linecap="round" filter="url(#b)"/><path d="M200 185c10 5 10 10 0 16" fill="none" stroke="#555" stroke-width="1.3" stroke-linecap="round" filter="url(#b)"/></svg>