<svg width="72" height="72" viewBox="0 0 100 100" xmlns="http://www.w3.org/2000/svg"><path d="M20 10q-2-2 4-2h46q8 2 10 10v64q-2 8-10 10H24q-8-2-8-10V18q0-6 4-8Z" fill="#fff" stroke="#222" stroke-width="3" stroke-linejoin="round"/><path d="M60 8q14 0 20 10-10 2-20 2Z" fill="#f3f3f3" stroke="#222" stroke-width="2.5" stroke-linejoin="round"/><path d="M28 38q16-2 32 0M28 50q20-2 38 0M28 62q18 2 30 0" stroke="#888" stroke-width="3" fill="none" stroke-linecap="round"/><path d="M22 70q2-4 6-8l30-30q4-4 8-2 4 4 0 8L36 68q-4 4-8 6t-6-4Z" fill="#f2c94c" stroke="#9c7a12" stroke-width="3" stroke-linejoin="round"/><path d="M58 32q6-6 12-2-4 6-10 10Z" fill="#e0c2a2" stroke="#8b6b4a" stroke-width="2.5" stroke-linejoin="round"/><path d="M64 30q4 2 2 6" stroke="#222" stroke-width="3" stroke-linecap="round"/></svg>