<svg width="150" height="150" viewBox="0 0 150 150" xmlns="http://www.w3.org/2000/svg"><path d="M75 20c25 0 45 20 50 50s-15 50-50 55c-35-5-55-25-50-55s25-50 50-50" fill="#333" stroke="#222" stroke-width="3" stroke-linecap="round" stroke-linejoin="round"/><path d="m75 50 20-35-20 25 30 25-30-10 55 20-50-5 30 25-35-15 15 45-20-40-20 25 10-30-40-5 40-5-25-10 30-5-25-25 30 10Z" fill="#fc0" stroke="#e0a000" stroke-width="2" stroke-linejoin="round"/><path d="m75 60 10-20-10 15 15 15-15-5 25 10-25-5 10 15-10-10 5 20-10-15-10 10 5-15-20-5 20-5-15-10 20 5-15-15 15 5Z" fill="#ff9" stroke="#cc6" stroke-width="1.5" stroke-linejoin="round"/><circle cx="75" cy="75" r="5" fill="#fff"/></svg>