<svg width="200" height="200" viewBox="0 0 200 200" xmlns="http://www.w3.org/2000/svg"><path d="M100 15q50 5 75 40 15 45 0 90-25 35-75 40-50-5-75-40-15-45 0-90 25-35 75-40" fill="#fff9a3" stroke="#222" stroke-width="3" stroke-linecap="round" stroke-linejoin="round"/><path d="M100 20q45 5 68 38 14 42 0 84-23 30-68 36-45-6-68-36-14-42 0-84 23-33 68-38" fill="none" stroke="#222" stroke-width="1.5" opacity=".6" stroke-linecap="round" stroke-linejoin="round"/><path d="M100 28v10m0 124v10m-72-72h10m124 0h10m-27-55-7 7m-83 93 7-7m-7-83 7 7m83 83-7-7" stroke="#222" stroke-width="2" stroke-linecap="round"/><path d="M100 100q-4-10-5-30" stroke="#222" stroke-width="4" fill="none" stroke-linecap="round"/><path d="M100 100q5-25 10-55" stroke="#222" stroke-width="3" fill="none" stroke-linecap="round"/><circle cx="100" cy="100" r="4" fill="#222"/></svg>