<svg width="200" height="200" viewBox="0 0 200 200" xmlns="http://www.w3.org/2000/svg">
  <path d="M100,15
       Q150,20 175,55
       Q190,100 175,145
       Q150,180 100,185
       Q50,180 25,145
       Q10,100 25,55
       Q50,20 100,15 Z" fill="#ffffff" stroke="#222" stroke-width="3" stroke-linecap="round" stroke-linejoin="round"/>
  <path d="M100,20
       Q145,25 168,58
       Q182,100 168,142
       Q145,172 100,178
       Q55,172 32,142
       Q18,100 32,58
       Q55,25 100,20 Z" fill="none" stroke="#222" stroke-width="1.5" opacity="0.6" stroke-linecap="round" stroke-linejoin="round"/>
  <g stroke="#222" stroke-width="2" stroke-linecap="round">
    <line x1="100" y1="28" x2="100" y2="38"/>
    <line x1="100" y1="162" x2="100" y2="172"/>
    <line x1="28" y1="100" x2="38" y2="100"/>
    <line x1="162" y1="100" x2="172" y2="100"/>
    <line x1="145" y1="45" x2="138" y2="52"/>
    <line x1="55" y1="145" x2="62" y2="138"/>
    <line x1="55" y1="55" x2="62" y2="62"/>
    <line x1="145" y1="145" x2="138" y2="138"/>
  </g>
  <path d="M100,100 Q96,90 95,70" stroke="#222" stroke-width="4" fill="none" stroke-linecap="round"/>
  <path d="M100,100 Q105,75 110,45" stroke="#222" stroke-width="3" fill="none" stroke-linecap="round"/>
  <circle cx="100" cy="100" r="4" fill="#222"/>
</svg>
