<svg width="120" height="120" viewBox="0 0 100 100" xmlns="http://www.w3.org/2000/svg"><path d="M28 20q-2 22 6 32t16 10 16-10 6-32q-12-2-22-2t-22 2Z" fill="#f2c94c" stroke="#9c7a12" stroke-width="3" stroke-linejoin="round"/><path d="M28 26q-16 4-12 20 4 12 20 10m36-30q16 4 12 20-4 12-20 10" fill="none" stroke="#9c7a12" stroke-width="3.5" stroke-linecap="round"/><path d="M44 62q4 4 12 0v8q-6 2-12 0Z" fill="#e6b83f" stroke="#9c7a12" stroke-width="2.5"/><path d="M36 72q14-2 28 0 2 6-14 6t-14-6Z" fill="#d9a83a" stroke="#8a6610" stroke-width="2.5"/><path d="M30 80q20 4 40 0 2 10-20 12-22-2-20-12Z" fill="#8b5e3c" stroke="#4f3320" stroke-width="3"/><path d="M38 28q2 12 8 22" stroke="#fff4b0" stroke-width="3" stroke-linecap="round" opacity=".6"/></svg>